<svg width="130" height="89" viewBox="0 0 130 89" fill="none" xmlns="http://www.w3.org/2000/svg">
<g id="Union" filter="url(#filter0_d_557_99)">
<path d="M82.5005 22.7792V23.4536L83.0642 23.8239C83.709 24.2475 84.311 25.2772 84.311 26.658C84.311 28.0387 83.709 29.0684 83.0642 29.492L82.5005 29.8623V30.5367V44.4222V45.0386V45.6722V46.183H69.7505H68.5005V47.433V50.7137V51.6768L69.4317 51.9224C77.6938 54.1014 83.9214 61.2931 84.6679 70.0435L87.1461 70.1443C88.1262 64.3113 92.0148 59.4592 97.2725 57.1365L98.0174 56.8075V55.9931V54.933C98.0174 54.7949 98.1293 54.683 98.2674 54.683C98.4055 54.683 98.5174 54.7949 98.5174 54.933V54.9649V56.5639L100.069 56.178L100.092 56.1722L101.041 55.9364V54.9592V52.6941V51.7981L100.192 51.5103C96.9943 50.4255 94.3636 48.1038 92.8729 45.1144L92.5277 44.4222H91.7542H85.3799C85.8512 43.184 86.3264 41.5274 86.7281 39.7446C87.285 37.2725 87.7294 34.4291 87.8217 31.8891C88.2271 20.7416 96.6861 14.9437 104.29 14.9437C111.895 14.9437 120.354 20.7417 120.759 31.8891C120.864 34.7697 121.422 38.0449 122.086 40.7315C122.419 42.0774 122.784 43.2998 123.144 44.2696C123.163 44.321 123.182 44.3719 123.201 44.4222H116.827H116.053L115.708 45.1144C114.217 48.1038 111.587 50.4255 108.389 51.5103L107.541 51.7981V52.6941V54.9592V55.9373L108.49 56.1725L108.511 56.1778L110.064 56.5651V54.9649V54.8052C110.064 54.6671 110.176 54.5552 110.314 54.5552C110.452 54.5552 110.564 54.6671 110.564 54.8052V55.9931V56.8075L111.309 57.1365C117.417 59.8351 121.676 65.9454 121.676 73.0478V78.9937L63.8383 78.9937L6.00049 78.9937V72.9245C6.00049 64.5167 11.8623 57.475 19.7233 55.6688L20.6934 55.4459V54.4505V53.935V52.9279L19.7094 52.7136C19.5967 52.6891 19.513 52.5869 19.513 52.468C19.513 52.3492 19.5967 52.2469 19.7094 52.2224L20.6934 52.0081V51.001V49.9696V49.0392L19.8022 48.7722C15.3878 47.4495 11.9159 43.9378 10.6491 39.4999L10.4953 38.9612L9.99088 38.7175C9.45374 38.458 9.0719 37.9339 9.00959 37.3207L8.90445 36.286L7.86786 36.2012C7.31272 36.1558 6.37586 35.3554 6.37586 33.7007C6.37586 32.0535 7.3062 31.2502 7.86141 31.2008L9.00049 31.0993V29.9557V29.1402C9.00049 20.994 15.6043 14.3902 23.7505 14.3902C31.8967 14.3902 38.5005 20.994 38.5005 29.1402V29.9656V31.0616L39.5871 31.2049C40.1426 31.2782 41.0352 32.0966 41.0352 33.7007C41.0352 35.3117 40.1365 36.1279 39.581 36.1973L38.5898 36.3211L38.4919 37.3152C38.4291 37.9539 38.0196 38.4963 37.4498 38.7452L36.9122 38.98L36.7493 39.5435C35.5215 43.7903 32.2725 47.1834 28.1128 48.6103L27.2684 48.8999V49.7927V51.0506V51.9373L28.1052 52.2304C28.2049 52.2653 28.2734 52.3603 28.2734 52.468C28.2734 52.5758 28.2049 52.6708 28.1052 52.7057L27.2684 52.9987V53.8854V54.5859V55.5508L28.2019 55.7951C34.9249 57.5547 40.09 63.1707 41.1919 70.1332L43.6721 70.0441C44.4229 61.2399 50.7224 54.0136 59.06 51.883L60.0005 51.6427V50.672V47.433V46.183H58.7505H46.0005V30.6353V29.9079L45.368 29.5485C44.6941 29.1656 44.0289 28.1142 44.0289 26.658C44.0289 25.2018 44.6941 24.1503 45.368 23.7675L46.0005 23.4081V22.6806V19.933C46.0005 9.85379 54.1713 1.68298 64.2505 1.68298C74.3297 1.68298 82.5005 9.85379 82.5005 19.933V22.7792Z" stroke="url(#paint0_linear_557_99)" stroke-width="2.5" shape-rendering="crispEdges"/>
</g>
<defs>
<filter id="filter0_d_557_99" x="0.750488" y="0.432983" width="128.499" height="87.8107" filterUnits="userSpaceOnUse" color-interpolation-filters="sRGB">
<feFlood flood-opacity="0" result="BackgroundImageFix"/>
<feColorMatrix in="SourceAlpha" type="matrix" values="0 0 0 0 0 0 0 0 0 0 0 0 0 0 0 0 0 0 127 0" result="hardAlpha"/>
<feOffset dy="4"/>
<feGaussianBlur stdDeviation="2"/>
<feComposite in2="hardAlpha" operator="out"/>
<feColorMatrix type="matrix" values="0 0 0 0 0 0 0 0 0 0 0 0 0 0 0 0 0 0 0.1 0"/>
<feBlend mode="normal" in2="BackgroundImageFix" result="effect1_dropShadow_557_99"/>
<feBlend mode="normal" in="SourceGraphic" in2="effect1_dropShadow_557_99" result="shape"/>
</filter>
<linearGradient id="paint0_linear_557_99" x1="125.249" y1="80.1052" x2="4.75049" y2="80.1052" gradientUnits="userSpaceOnUse">
<stop stop-color="#4F9450"/>
<stop offset="0.479167" stop-color="#75B665"/>
<stop offset="1" stop-color="#4F9450"/>
</linearGradient>
</defs>
</svg>
